<svg width="142" height="35" viewBox="0 0 142 35" fill="none" xmlns="http://www.w3.org/2000/svg">
<g clip-path="url(#clip0_1_479)" filter="url(#filter0_d_1_479)">
<path d="M95.9823 22.233C94.6855 22.233 93.4083 21.8486 92.5163 20.9785L93.2664 20.0275C94.1175 20.7357 95.0297 21.019 95.9621 21.019C97.4417 21.019 98.7391 20.1692 98.7391 18.5101V16.9723C98.2323 17.9031 97.1782 18.5708 95.9016 18.5708C93.6314 18.5708 92.0302 16.8509 92.0302 14.2003C92.0302 11.8128 93.5703 9.7085 95.9419 9.7085C98.2323 9.7085 98.8204 11.226 98.8204 11.226V9.7085C99.5297 9.7085 100.097 10.275 100.097 10.9832V11.4283V18.2672C100.077 20.9988 98.2323 22.233 95.9823 22.233ZM96.0636 10.9832C94.3407 10.9832 93.3881 12.5007 93.3881 14.1396C93.3881 16.0011 94.3608 17.3567 96.104 17.3567C97.7052 17.3567 98.8002 15.819 98.8002 14.1801C98.8002 12.4603 97.6851 10.9832 96.0636 10.9832Z" fill="#323232"/>
<path d="M40.1404 14.2C40.1809 15.9806 41.2755 17.3565 43.12 17.3565C44.3767 17.3565 45.2077 16.9113 45.978 16.2032L46.8495 17.053C46.0793 17.8623 44.8834 18.5907 43.0997 18.5907C40.4242 18.5907 38.8026 16.6483 38.8026 14.0584C38.8026 11.772 40.4039 9.72852 42.9984 9.72852C45.1875 9.72852 46.505 11.1853 46.9104 13.0872C47.032 13.674 46.5658 14.2 45.978 14.2H40.1404ZM42.9173 10.9425C41.3565 10.9425 40.4242 11.9137 40.2012 13.1277H45.4915C45.2888 12.0148 44.4172 10.9425 42.9173 10.9425Z" fill="#323232"/>
<path d="M51.4912 20.2296C51.1061 21.2818 50.4574 22.1316 49.1602 22.1316C48.6535 22.1316 48.2684 22.0709 47.8629 21.909V20.6545C48.167 20.8163 48.4507 20.8973 48.8156 20.8973C49.8291 20.8973 50.1128 20.1892 50.4169 19.3596L50.802 18.3681L47.64 9.97119H49.0791L51.6128 16.5876L54.0451 9.97119H55.4437L51.4912 20.2296Z" fill="#323232"/>
<path d="M57.4706 14.2C57.5111 15.9806 58.6056 17.3565 60.4504 17.3565C61.7069 17.3565 62.5378 16.9113 63.3081 16.2032L64.18 17.053C63.3894 17.8623 62.2137 18.5907 60.4297 18.5907C57.7543 18.5907 56.1328 16.6483 56.1328 14.0584C56.1328 11.772 57.7341 9.72852 60.3288 9.72852C62.5176 9.72852 63.8352 11.1853 64.2405 13.0872C64.3622 13.674 63.8957 14.2 63.3081 14.2H57.4706ZM60.2475 10.9425C58.6867 10.9425 57.7543 11.9137 57.5314 13.1277H62.8215C62.6393 12.0148 61.7472 10.9425 60.2475 10.9425Z" fill="#323232"/>
<path d="M69.0853 18.4083C67.5849 18.4083 66.6323 17.8216 66.6323 16.1624V11.2052H65.3961V9.97101H66.6323V6.06592H67.9701V9.97101H69.5512V11.2052H67.9701V16.1219C67.9701 16.7694 68.3149 17.1539 69.1256 17.1539H69.5714V18.3881C69.5714 18.3881 69.1256 18.4083 69.0853 18.4083Z" fill="#323232"/>
<path d="M72.2671 14.2C72.3081 15.9806 73.4025 17.3565 75.2471 17.3565C76.5036 17.3565 77.3345 16.9113 78.1048 16.2032L78.9767 17.053C78.2063 17.8623 77.0104 18.5907 75.2269 18.5907C72.5508 18.5907 70.9294 16.6483 70.9294 14.0584C70.9294 11.772 72.5307 9.72852 75.1254 9.72852C77.3143 9.72852 78.6319 11.1853 79.0372 13.0872C79.1589 13.674 78.693 14.2 78.1048 14.2H72.2671ZM75.0441 10.9425C73.4832 10.9425 72.5508 11.9137 72.3283 13.1277H77.6182C77.4158 12.0148 76.5439 10.9425 75.0441 10.9425Z" fill="#323232"/>
<path d="M80.9423 18.3479V6.08643H82.2801V18.3479H80.9423Z" fill="#323232"/>
<path d="M84.8749 18.3479V6.08643H86.2127V18.3479H84.8749Z" fill="#323232"/>
<path d="M88.6852 7.84694V5.88428H89.0704C89.5974 5.88428 90.0229 6.30918 90.0229 6.83527V7.84694H88.6852ZM88.6852 18.3482V9.97142H90.0229V18.3279H88.6852V18.3482Z" fill="#323232"/>
<path d="M103.32 14.2C103.361 15.9806 104.455 17.3565 106.3 17.3565C107.556 17.3565 108.387 16.9113 109.158 16.2032L110.029 17.053C109.239 17.8623 108.063 18.5907 106.28 18.5907C103.603 18.5907 101.982 16.6483 101.982 14.0584C101.982 11.772 103.583 9.72852 106.178 9.72852C108.367 9.72852 109.685 11.1853 110.09 13.0872C110.212 13.674 109.746 14.2 109.158 14.2H103.32ZM106.097 10.9425C104.536 10.9425 103.603 11.9137 103.381 13.1277H108.671C108.468 12.0148 107.597 10.9425 106.097 10.9425Z" fill="#323232"/>
<path d="M117.711 18.3479V13.0063C117.711 11.8125 117.042 10.9627 115.745 10.9627C114.184 10.9627 113.333 12.3386 113.333 13.5122V18.3479H111.995V10.9222C111.995 10.3962 112.421 9.97131 112.948 9.97131H113.333V11.1853C113.84 10.2748 114.833 9.72852 115.948 9.72852C117.833 9.72852 119.049 10.9425 119.049 12.7837V18.3479H117.711Z" fill="#323232"/>
<path d="M125.028 18.5907C122.414 18.5907 120.772 16.6281 120.772 14.1394C120.772 11.7316 122.515 9.72852 124.927 9.72852C126.833 9.72852 127.907 10.6997 128.515 11.4888L127.501 12.2779C126.954 11.5697 126.164 10.983 124.988 10.983C123.265 10.983 122.13 12.46 122.13 14.0787C122.13 15.9806 123.326 17.3565 124.968 17.3565C126.164 17.3565 126.995 16.7697 127.704 15.8187L128.677 16.5269C127.907 17.66 126.609 18.5907 125.028 18.5907Z" fill="#323232"/>
<path d="M131.211 14.2C131.251 15.9806 132.346 17.3565 134.19 17.3565C135.447 17.3565 136.278 16.9113 137.048 16.2032L137.92 17.053C137.149 17.8623 135.954 18.5907 134.17 18.5907C131.495 18.5907 129.873 16.6483 129.873 14.0584C129.873 11.772 131.474 9.72852 134.069 9.72852C136.258 9.72852 137.575 11.1853 137.98 13.0872C138.102 13.674 137.636 14.2 137.048 14.2H131.211ZM133.988 10.9425C132.427 10.9425 131.494 11.9137 131.271 13.1277H136.562C136.359 12.0148 135.488 10.9425 133.988 10.9425Z" fill="#323232"/>
<path d="M19.1479 0.21875C10.3708 0.21875 4 4.87245 4 13.2694C4 20.9783 11.2387 26.2188 18.9507 26.2188C27.0572 26.2188 34 20.8771 34 13.067C34 4.77128 26.8599 0.21875 19.1479 0.21875ZM21.5543 21.0795C16.8994 21.0795 12.5602 18.5907 12.5602 14.9082C12.5602 10.9021 16.3866 8.69658 21.6726 8.69658C26.3274 8.69658 30.6272 10.8615 30.6272 14.8273C30.6075 18.5301 26.426 21.0795 21.5543 21.0795Z" fill="url(#paint0_radial_1_479)"/>
</g>
<defs>
<filter id="filter0_d_1_479" x="0" y="0.21875" width="142" height="34" filterUnits="userSpaceOnUse" color-interpolation-filters="sRGB">
<feFlood flood-opacity="0" result="BackgroundImageFix"/>
<feColorMatrix in="SourceAlpha" type="matrix" values="0 0 0 0 0 0 0 0 0 0 0 0 0 0 0 0 0 0 127 0" result="hardAlpha"/>
<feOffset dy="4"/>
<feGaussianBlur stdDeviation="2"/>
<feComposite in2="hardAlpha" operator="out"/>
<feColorMatrix type="matrix" values="0 0 0 0 0 0 0 0 0 0 0 0 0 0 0 0 0 0 0.25 0"/>
<feBlend mode="normal" in2="BackgroundImageFix" result="effect1_dropShadow_1_479"/>
<feBlend mode="normal" in="SourceGraphic" in2="effect1_dropShadow_1_479" result="shape"/>
</filter>
<radialGradient id="paint0_radial_1_479" cx="0" cy="0" r="1" gradientUnits="userSpaceOnUse" gradientTransform="translate(19.0525 13.231) scale(14.2691 11.4599)">
<stop offset="0.00180756" stop-color="#323232" stop-opacity="0"/>
<stop offset="0.9986" stop-color="#888888"/>
</radialGradient>
<clipPath id="clip0_1_479">
<rect width="134" height="26" fill="white" transform="translate(4 0.21875)"/>
</clipPath>
</defs>
</svg>
